PathFileType	4	(X/Y/Z)	C:/Users/opensim2020/Desktop/walking_exp_matlab/subject06_walking16_straight_03.trc																																																																																																																																																							
DataRate	CameraRate	NumFrames	NumMarkers	Units	OrigDataRate	OrigDataStartFrame	OrigNumFrames																																																																																																																																																			
100	100	4	51	mm	100	2893	283																																																																																																																																																			
Frame#	Time	LFHD			RFHD			LBHD			RBHD			C7			T10			CLAV			STRN			RBAK			LSHO			LUPA			LELB			LFRM			LWRA			LWRB			LFIN			RSHO			RUPA			RELB			RFRM			RWRA			RWRB			RFIN			LASI			RASI			LPSI			RPSI			LTHI			LKNE			LTIB			LANK			LHEE			LTOE			RTHI			RKNE			RTIB			RANK			RHEE			RTOE			*39			*40			*41			*42			*43			*44			*45			*46			*47			*48			*49			*50		
		X1	Y1	Z1	X2	Y2	Z2	X3	Y3	Z3	X4	Y4	Z4	X5	Y5	Z5	X6	Y6	Z6	X7	Y7	Z7	X8	Y8	Z8	X9	Y9	Z9	X10	Y10	Z10	X11	Y11	Z11	X12	Y12	Z12	X13	Y13	Z13	X14	Y14	Z14	X15	Y15	Z15	X16	Y16	Z16	X17	Y17	Z17	X18	Y18	Z18	X19	Y19	Z19	X20	Y20	Z20	X21	Y21	Z21	X22	Y22	Z22	X23	Y23	Z23	X24	Y24	Z24	X25	Y25	Z25	X26	Y26	Z26	X27	Y27	Z27	X28	Y28	Z28	X29	Y29	Z29	X30	Y30	Z30	X31	Y31	Z31	X32	Y32	Z32	X33	Y33	Z33	X34	Y34	Z34	X35	Y35	Z35	X36	Y36	Z36	X37	Y37	Z37	X38	Y38	Z38	X39	Y39	Z39	X40	Y40	Z40	X41	Y41	Z41	X42	Y42	Z42	X43	Y43	Z43	X44	Y44	Z44	X45	Y45	Z45	X46	Y46	Z46	X47	Y47	Z47	X48	Y48	Z48	X49	Y49	Z49	X50	Y50	Z50	X51	Y51	Z51
																																																																																																																																																										
71	0.7	-464.74365	1659.55542	-1081.32153	-475.3624	1646.06555	-950.62494	-595.98425	1602.71179	-1093.84802	-605.14856	1594.58936	-964.89825	-600.66412	1445.6156	-1033.72852	-639.6322	1117.34583	-1016.63495	-491.05643	1367.90442	-1031.58398	-451.61273	1194.60486	-1033.82837	-673.10858	1278.61389	-944.53711	-543.91248	1399.15771	-1194.0083	-573.62872	1197.96313	-1261.19556	-599.40717	1088.02795	-1268.01794	-601.22992	938.2912	-1292.95142	-548.24884	816.56598	-1264.28564	-618.47644	819.6001	-1284.78137	-591.57092	732.7962	-1292.13879	-532.65356	1403.98315	-872.8653	-542.4046	1207.37195	-776.95044	-513.82886	1089.13647	-760.11328	-469.30502	977.6181	-741.84906	-377.7789	858.47369	-775.85767	-427.26041	846.54291	-732.43732	-371.0658	783.78235	-732.24854	-454.97641	969.10095	-1122.30457	-463.60458	963.35986	-906.69592	-613.61969	983.91418	-1103.97925	-612.7334	979.1897	-937.00201	-471.74155	653.06732	-1190.06946	-443.32562	492.27567	-1166.15161	-450.94348	234.82123	-1159.14526	-441.44476	63.2556	-1114.55945	-484.52066	49.09208	-1070.90112	-296.29651	37.16214	-1096.16309	-499.98608	618.15765	-854.36725	-487.51337	491.27338	-868.914	-674.0611	311.45648	-887.24658	-812.74017	190.91876	-931.52228	-852.16071	202.45056	-980.8866	-749.7558	49.42717	-918.00861	-570.24756	1694.62268	-1030.34949	NaN	NaN	NaN	NaN	NaN	NaN	NaN	NaN	NaN	NaN	NaN	NaN	NaN	NaN	NaN	NaN	NaN	NaN	NaN	NaN	NaN	NaN	NaN	NaN	NaN	NaN	NaN	NaN	NaN	NaN	NaN	NaN	NaN
72	0.71	-456.73859	1660.47534	-1082.49341	-467.66183	1646.95862	-951.79095	-587.88477	1603.28625	-1095.3645	-597.2309	1595.11951	-966.41998	-592.18195	1446.26453	-1035.29944	-631.27942	1117.91736	-1018.51678	-482.79306	1368.651	-1032.80115	-443.25159	1195.32947	-1035.07922	-665.18756	1279.00378	-946.95099	-535.01465	1399.76868	-1195.42664	-562.45563	1198.31677	-1263.19873	-586.50079	1087.93506	-1270.62061	-584.70013	938.17316	-1294.25183	-529.72577	817.66431	-1264.58716	-600.2063	819.0542	-1286.15601	-571.30756	732.96606	-1292.93933	-525.06915	1404.37927	-873.99866	-536.06909	1207.46375	-778.63721	-507.79938	1089.06982	-762.03369	-464.71304	977.00879	-743.7641	-375.02759	856.44354	-777.86945	-424.52835	845.18042	-734.27173	-369.35931	781.60773	-734.30267	-446.53168	969.21753	-1123.76636	-455.49426	964.23016	-907.71393	-605.36682	984.31909	-1105.51074	-605.43372	979.57855	-938.16522	-465.57092	653.05634	-1191.19263	-438.3978	492.27707	-1166.94507	-450.22229	234.09943	-1159.99329	-441.14093	63.23052	-1114.52893	-484.34332	49.27843	-1070.95068	-295.88217	36.91644	-1096.19971	-486.67621	619.20892	-854.53003	-471.03809	492.85815	-868.54126	-656.88098	315.02307	-888.22522	-797.71539	197.46123	-934.40741	-835.93469	209.5117	-984.51044	-739.46027	53.02502	-918.79193	-562.4895	1695.30151	-1031.79822	NaN	NaN	NaN	NaN	NaN	NaN	NaN	NaN	NaN	NaN	NaN	NaN	NaN	NaN	NaN	NaN	NaN	NaN	NaN	NaN	NaN	NaN	NaN	NaN	NaN	NaN	NaN	NaN	NaN	NaN	NaN	NaN	NaN
73	0.72	-448.9111	1661.31506	-1083.76904	-460.01025	1647.82458	-952.95978	-579.73718	1603.77502	-1096.79456	-589.34753	1595.59558	-967.86743	-583.89984	1447.08337	-1036.83069	-623.11749	1118.46973	-1020.26929	-474.52347	1369.31067	-1033.96204	-435.0726	1195.92358	-1036.35889	-657.34521	1279.42712	-949.30426	-526.13562	1400.41528	-1196.83289	-551.24438	1198.39063	-1265.04834	-573.52252	1087.81519	-1272.89844	-568.55048	937.87439	-1296.2373	-511.51453	818.67987	-1264.86768	-581.51111	818.45856	-1287.59509	-550.3609	733.23389	-1293.81067	-517.38568	1404.6792	-875.08008	-529.87354	1207.44238	-780.27997	-501.93292	1088.86548	-763.88232	-460.25073	976.30426	-745.69684	-372.38068	854.43005	-779.90082	-421.83936	844.14697	-735.88574	-367.70587	779.45142	-736.3335	-437.99588	969.53876	-1125.14099	-447.49976	965.04504	-908.69501	-597.32111	984.83557	-1106.72205	-597.13745	979.83295	-939.62396	-458.66553	653.59406	-1191.5791	-433.63293	492.28949	-1167.59253	-447.20602	234.9211	-1159.95276	-440.87357	63.24989	-1114.3783	-484.20462	49.3792	-1070.91174	-295.64951	36.70611	-1096.08411	-473.87424	620.36237	-854.71753	-455.1246	494.56647	-868.51746	-639.91998	318.07785	-889.33282	-781.99207	202.61084	-937.04907	-819.08667	214.69423	-988.00159	-727.44287	56.62236	-918.5105	-554.79755	1695.84644	-1033.20203	NaN	NaN	NaN	NaN	NaN	NaN	NaN	NaN	NaN	NaN	NaN	NaN	NaN	NaN	NaN	NaN	NaN	NaN	NaN	NaN	NaN	NaN	NaN	NaN	NaN	NaN	NaN	NaN	NaN	NaN	NaN	NaN	NaN
74	0.73	-440.90109	1661.94446	-1084.83203	-452.31	1648.56958	-954.23889	-571.65417	1604.04346	-1098.18628	-581.55414	1596.02051	-969.57202	-575.66046	1447.78003	-1038.24927	-615.11768	1118.9303	-1021.84625	-466.36401	1369.828	-1035.026	-427.11038	1196.33289	-1037.5343	-649.69275	1279.89868	-951.5451	-517.35089	1400.78027	-1198.10217	-539.88062	1198.32141	-1266.76514	-560.0777	1087.45239	-1275.19128	-551.51147	937.59784	-1297.68933	-493.62158	819.2356	-1265.55908	-562.55157	817.9917	-1289.10742	-529.05298	733.56384	-1294.5354	-509.91412	1404.89209	-876.08228	-523.75598	1207.3656	-781.85114	-496.41315	1088.57898	-765.64386	-455.98676	975.52911	-747.58948	-369.87897	852.39929	-781.90778	-419.27713	842.91711	-737.67004	-366.09338	777.45404	-738.23706	-429.71204	969.80798	-1126.50317	-439.46295	965.79321	-909.71472	-589.41833	985.31476	-1107.79822	-589.26831	980.18665	-940.59576	-452.31247	653.90771	-1192.06653	-429.07953	492.25201	-1168.10889	-445.21536	234.81732	-1160.14343	-440.64456	63.27428	-1114.20154	-484.33392	49.83366	-1070.70532	-295.52792	36.45837	-1095.95996	-461.48541	621.69965	-854.80701	-439.62823	496.46387	-868.17657	-623.31726	320.71487	-890.67853	-765.89343	206.10588	-939.3681	-802.28809	217.63492	-990.94501	-711.52167	60.391	-918.1781	-547.02637	1696.37134	-1034.67639	NaN	NaN	NaN	NaN	NaN	NaN	NaN	NaN	NaN	NaN	NaN	NaN	NaN	NaN	NaN	NaN	NaN	NaN	NaN	NaN	NaN	NaN	NaN	NaN	NaN	NaN	NaN	NaN	NaN	NaN	NaN	NaN	NaN
